<svg version="1.1" id="Layer_1" xmlns="http://www.w3.org/2000/svg" xmlns:xlink="http://www.w3.org/1999/xlink" x="0px" y="0px" viewBox="0 0 32 32" enable-background="new 0 0 32 32" xml:space="preserve">
<path fill="#55ACEE" d="M28.106 10.986c-0.723-1.743 0.117-4.581-1.196-5.895c-1.314-1.314-4.152-0.474-5.896-1.197
	C19.332 3.196 17.934 0 16 0c-1.934 0-3.332 3.196-5.014 3.894C9.243 4.617 6.404 3.776 5.091 5.09
	c-1.314 1.314-0.474 4.152-1.197 5.896C3.196 12.668 0 14.066 0 16c0 1.934 3.196 3.332 3.894 5.014
	c0.723 1.743-0.117 4.582 1.196 5.895c1.314 1.314 4.152 0.474 5.896 1.197C12.668 28.804 14.066 32 16 32
	c1.934 0 3.332-3.196 5.014-3.894c1.743-0.723 4.582 0.117 5.895-1.196c1.314-1.314 0.474-4.152 1.197-5.896
	C28.804 19.332 32 17.934 32 16C32 14.066 28.804 12.668 28.106 10.986z" />
<polygon fill="#FFFFFF" points="22.5 9 13.5 18 9.5 14 7 17 13.591 23 25 11.5 	" />
</svg>